<?xml version="1.0" encoding="UTF-8" standalone="no"?>
<svg
   xmlns:dc="http://purl.org/dc/elements/1.1/"
   xmlns:cc="http://creativecommons.org/ns#"
   xmlns:rdf="http://www.w3.org/1999/02/22-rdf-syntax-ns#"
   xmlns:svg="http://www.w3.org/2000/svg"
   xmlns="http://www.w3.org/2000/svg"
   xmlns:sodipodi="http://sodipodi.sourceforge.net/DTD/sodipodi-0.dtd"
   xmlns:inkscape="http://www.inkscape.org/namespaces/inkscape"
   version="1.1"
   x="0px"
   y="0px"
   viewBox="0 0 1000 1000"
   enable-background="new 0 0 1000 1000"
   xml:space="preserve"
   id="svg2"
   inkscape:version="0.91 r13725"
   sodipodi:docname="step7.svg"><defs
     id="defs42" /><sodipodi:namedview
     pagecolor="#ffffff"
     bordercolor="#666666"
     borderopacity="1"
     objecttolerance="10"
     gridtolerance="10"
     guidetolerance="10"
     inkscape:pageopacity="0"
     inkscape:pageshadow="2"
     inkscape:window-width="1920"
     inkscape:window-height="1017"
     id="namedview40"
     showgrid="false"
     inkscape:zoom="0.236"
     inkscape:cx="-125"
     inkscape:cy="500"
     inkscape:window-x="-8"
     inkscape:window-y="-8"
     inkscape:window-maximized="1"
     inkscape:current-layer="g6" /><metadata
     id="metadata4"> Svg Vector Icons : http://www.onlinewebfonts.com/icon <rdf:RDF><cc:Work
     rdf:about=""><dc:format>image/svg+xml</dc:format><dc:type
       rdf:resource="http://purl.org/dc/dcmitype/StillImage" /></cc:Work></rdf:RDF></metadata><g
     id="g6"><path
       d="m 819.6,990 -639.2,0 c -29.3,0 -53.1,-23.8 -53.1,-53.1 l 0,-788.8 c 0,-29.3 23.8,-53.1 53.1,-53.1 l 57.4,0 0,-52.8 C 237.8,24.4 252.3,10 270,10 c 17.8,0 32.2,14.5 32.2,32.2 l 0,52.8 395.4,0 0,-52.8 C 697.6,24.4 712.1,10 729.8,10 747.6,10 762,24.5 762,42.2 l 0,52.8 57.4,0 c 29.3,0 53.1,23.8 53.1,53.1 l 0,788.8 c 0.2,29.3 -23.6,53.1 -52.9,53.1 z m -672.1,-733.4 0,680.3 c 0,18.1 14.8,32.9 32.9,32.9 l 639.2,0 c 18.1,0 32.9,-14.8 32.9,-32.9 l 0,-680.3 z m 0,-20.1 704.9,0 0,-88.3 c 0,-18.1 -14.7,-32.9 -32.9,-32.9 l -57.4,0 0,52.8 c 0,17.8 -14.5,32.2 -32.2,32.2 -17.8,0 -32.2,-14.5 -32.2,-32.2 l 0,-52.8 -395.4,0 0,52.8 c 0,17.8 -14.5,32.2 -32.2,32.2 -17.7,0 -32.2,-14.5 -32.2,-32.2 l 0,-52.8 -57.4,0 c -18.1,0 -32.9,14.7 -32.9,32.9 l 0,88.3 z m 570.4,-68.4 c 0,6.6 5.4,12 12,12 6.6,0 12,-5.4 12,-12 l 0,-125.9 c 0,-6.6 -5.4,-12 -12,-12 -6.6,0 -12,5.4 -12,12 z m -459.9,0 c 0,6.6 5.4,12 12,12 6.6,0 12,-5.4 12,-12 l 0,-125.9 c 0,-6.6 -5.4,-12 -12,-12 -6.6,0 -12,5.4 -12,12 z"
       id="path8"
       inkscape:connector-curvature="0"
       sodipodi:nodetypes="ssssscsssccssscsscscssssccccsscsssccssscssccssssssssssssss"
       style="stroke:#ffffff;fill:#ffffff" /><g
       id="g10" /><g
       id="g12" /><g
       id="g14" /><g
       id="g16" /><g
       id="g18" /><g
       id="g20" /><g
       id="g22" /><g
       id="g24" /><g
       id="g26" /><g
       id="g28" /><g
       id="g30" /><g
       id="g32" /><g
       id="g34" /><g
       id="g36" /><g
       id="g38" /><text
       xml:space="preserve"
       style="font-style:normal;font-weight:normal;font-size:40px;line-height:125%;font-family:sans-serif;letter-spacing:0px;word-spacing:0px;fill:#ffffff;fill-opacity:1;stroke:none;stroke-width:1px;stroke-linecap:butt;stroke-linejoin:miter;stroke-opacity:1;"
       x="372.88132"
       y="550.84747"
       id="text4170"
       sodipodi:linespacing="125%"><tspan
         sodipodi:role="line"
         id="tspan4172"
         x="372.88132"
         y="550.84747"
         style="font-style:normal;font-variant:normal;font-weight:100;font-stretch:normal;font-size:180px;font-family:Bastion;-inkscape-font-specification:'Bastion Thin';stroke:none;fill:#ffffff;">14</tspan></text>
<text
       xml:space="preserve"
       style="font-style:normal;font-weight:normal;font-size:40px;line-height:125%;font-family:sans-serif;letter-spacing:0px;word-spacing:0px;fill:#ffffff;fill-opacity:1;stroke:none;stroke-width:1px;stroke-linecap:butt;stroke-linejoin:miter;stroke-opacity:1;"
       x="275.42371"
       y="779.66101"
       id="text4174"
       sodipodi:linespacing="125%"><tspan
         sodipodi:role="line"
         id="tspan4176"
         x="275.42371"
         y="779.66101"
         style="font-size:180px;stroke:none;fill:#ffffff;">DAYS</tspan></text>
</g></svg>