<?xml version="1.0" encoding="UTF-8" standalone="no"?>
<svg
   xmlns:dc="http://purl.org/dc/elements/1.1/"
   xmlns:cc="http://creativecommons.org/ns#"
   xmlns:rdf="http://www.w3.org/1999/02/22-rdf-syntax-ns#"
   xmlns:svg="http://www.w3.org/2000/svg"
   xmlns="http://www.w3.org/2000/svg"
   xmlns:sodipodi="http://sodipodi.sourceforge.net/DTD/sodipodi-0.dtd"
   xmlns:inkscape="http://www.inkscape.org/namespaces/inkscape"
   version="1.1"
   x="0px"
   y="0px"
   viewBox="0 0 1000 1000"
   enable-background="new 0 0 1000 1000"
   xml:space="preserve"
   id="svg2"
   inkscape:version="0.91 r13725"
   sodipodi:docname="step8.svg"><defs
     id="defs14" /><sodipodi:namedview
     pagecolor="#ffffff"
     bordercolor="#666666"
     borderopacity="1"
     objecttolerance="10"
     gridtolerance="10"
     guidetolerance="10"
     inkscape:pageopacity="0"
     inkscape:pageshadow="2"
     inkscape:window-width="1920"
     inkscape:window-height="1017"
     id="namedview12"
     showgrid="false"
     inkscape:zoom="0.236"
     inkscape:cx="-199.15254"
     inkscape:cy="500"
     inkscape:window-x="-8"
     inkscape:window-y="-8"
     inkscape:window-maximized="1"
     inkscape:current-layer="svg2" /><metadata
     id="metadata4"> Svg Vector Icons : http://www.onlinewebfonts.com/icon <rdf:RDF><cc:Work
     rdf:about=""><dc:format>image/svg+xml</dc:format><dc:type
       rdf:resource="http://purl.org/dc/dcmitype/StillImage" /></cc:Work></rdf:RDF></metadata><g
     id="g6"
     style="fill:#217821"><g
       transform="translate(0.000000,511.000000) scale(0.100000,-0.100000)"
       id="g8"
       style="fill:#217821"><path
         d="M5848.8,2619.9L4338.7,1109.8l-858.2,858.2l-860.2,860.2L1360.1,1568L100,307.9L2207.9-1800c1160.2-1160.2,2118.3-2110,2130.8-2110s1268.5,1245.6,2791.1,2770.2L9900,1630.5L8650.3,2880.2C7962.9,3567.6,7392.2,4130,7379.7,4130C7367.2,4130,6679.9,3451,5848.8,2619.9z M6702.8-733.6L4338.7-3097.7L2637-1395.9L933.2,307.9l843.6,843.6l843.6,843.6l860.2-860.2l858.2-858.2l1520.5,1520.5l1520.5,1520.5l843.6-843.6l843.6-843.6L6702.8-733.6z"
         id="path10"
         style="fill:#217821" /></g></g></svg>